<svg width="120" height="60" viewBox="0 0 120 60" fill="none" xmlns="http://www.w3.org/2000/svg">
<g clip-path="url(#clip0_2829_12997)">
<path d="M32.2431 23.3984H31.2389L26.8482 36.2451L22.4809 23.3984H21.5L26.8482 39.2064L32.2431 23.3984Z" fill="#121A40" stroke="#121A40" stroke-width="0.956448"/>
<path d="M44.8364 38.9446V29.9519H43.8788V31.5197C42.8512 30.3874 41.5667 29.8213 40.0253 29.8213C38.624 29.8213 37.4407 30.2713 36.4754 31.1713C35.5257 32.0568 35.0508 33.1527 35.0508 34.4592C35.0508 35.7656 35.5334 36.8688 36.4988 37.7688C37.4485 38.6543 38.624 39.097 40.0253 39.097C41.5823 39.097 42.8668 38.5309 43.8788 37.3987V38.9446H44.8364ZM44.0657 34.4592C44.0657 35.5043 43.6686 36.3971 42.8746 37.1374C42.0961 37.8632 41.1463 38.2261 40.0253 38.2261C38.9199 38.2261 37.9701 37.8559 37.1761 37.1156C36.382 36.3753 35.985 35.4898 35.985 34.4592C35.985 33.414 36.382 32.5213 37.1761 31.781C37.9545 31.0552 38.9043 30.6923 40.0253 30.6923C41.1308 30.6923 42.0805 31.0624 42.8746 31.8027C43.6686 32.543 44.0657 33.4285 44.0657 34.4592Z" fill="#121A40" stroke="#121A40" stroke-width="0.956448"/>
<path d="M58.1444 35.5696V29.9519H57.2102V35.5696C57.2102 37.3551 56.315 38.2478 54.5244 38.2478C53.6058 38.2478 52.9363 38.0156 52.5159 37.5511C52.1111 37.0865 51.9087 36.4261 51.9087 35.5696V29.9519H50.9512V35.5696C50.9512 36.6873 51.2626 37.5583 51.8854 38.1825C52.5081 38.8067 53.3878 39.1188 54.5244 39.1188C55.6766 39.1188 56.5719 38.7994 57.2102 38.1607C57.833 37.5365 58.1444 36.6728 58.1444 35.5696Z" fill="#121A40" stroke="#121A40" stroke-width="0.956448"/>
<path d="M64.524 38.9448V22.832H63.5898V38.9448H64.524Z" fill="#121A40" stroke="#121A40" stroke-width="0.956448"/>
<path d="M74.8903 30.8456V29.9528H72.6482V26.0117H71.6907V29.9528H70.3828V30.8456H71.6907V38.9455H72.6482V30.8456H74.8903Z" fill="#121A40" stroke="#121A40" stroke-width="0.956448"/>
<path d="M86.3062 38.9451V38.0524H81.6119V23.3984H80.6777V38.9451H86.3062Z" fill="#121A40" stroke="#121A40" stroke-width="0.956448"/>
<path d="M92.1313 27.6219C92.0067 27.1428 91.7498 26.9033 91.3605 26.9033C90.8467 26.9904 90.5898 27.2299 90.5898 27.6219C90.6054 27.8396 90.6833 28.0138 90.8234 28.1444C91.0102 28.2751 91.1893 28.3404 91.3605 28.3404C91.8743 28.3404 92.1313 28.1009 92.1313 27.6219ZM91.8276 38.9444V29.9517H90.8701V38.9444H91.8276Z" fill="#121A40" stroke="#121A40" stroke-width="0.956448"/>
<path d="M104.726 38.9453V33.48C104.726 32.3333 104.406 31.4405 103.768 30.8018C103.13 30.1631 102.211 29.8438 101.012 29.8438C99.5953 29.8438 98.6689 30.2429 98.2329 31.0413V29.9526H97.2754V38.9453H98.2329V33.48C98.2329 32.6236 98.4743 31.9486 98.9569 31.455C99.424 30.9615 100.109 30.7147 101.012 30.7147C102.849 30.7147 103.768 31.6655 103.768 33.5671V38.9453H104.726Z" fill="#121A40" stroke="#121A40" stroke-width="0.956448"/>
<path d="M117.974 38.9448L112.299 33.6537L116.666 29.6038H115.312L111.131 33.4795V22.832H110.174V38.9448H111.131V34.7642L111.669 34.2634L116.713 38.9448H117.974Z" fill="#121A40" stroke="#121A40" stroke-width="0.956448"/>
<path d="M61.092 43.678V58.4407H1.55664V1.55957H61.092V17.8103" stroke="#121A40" stroke-width="3.11885"/>
</g>
<defs>
<clipPath id="clip0_2829_12997">
<rect width="119.172" height="60" fill="white"/>
</clipPath>
</defs>
</svg>
